<svg height="368" viewBox="8.8 9.6 980.5 132.4" width="2500" xmlns="http://www.w3.org/2000/svg"><path d="m23.8 141.3-10.8-.4-2.1-4.1-2.1-4.1 12.3-12.1c6.8-6.7 16.5-15.9 21.5-20.6s15.6-14.7 23.6-22.3c8.1-7.6 15.8-14.7 17.2-15.8l2.6-2 1.7 3.6c1.6 3.3 1.6 4 .1 10.8-.9 4-2.5 10.4-3.6 14.2-4 14.1-6.2 22-6.2 22.8 0 1.3 8.5.7 10.7-.8 1.1-.8 2.3-2.5 2.6-3.7.2-1.3 1.9-7.2 3.7-13.2 1.7-6 3.8-13.7 4.5-17 .8-3.4 2.8-10.8 4.5-16.6s4.7-16.6 6.7-24c1.9-7.4 3.8-14.3 4-15.3 1-3.2-1.6-1.7-7.6 4.6-3.3 3.4-23 23.3-43.7 44.2l-37.7 38-2-4.2c-2.4-4.8-2.6-3.6 6.4-32.3 2.6-8.5 5.8-18.9 6.9-23 6.3-22 11-36.3 12.4-37.5.7-.6 12.1-.9 31.4-.7l30.2.3 1.5 3c2 3.7 3 3.7 4.4-.1 1-2.9 1.2-3 7.3-3 9.5 0 19.7 2.5 22.9 5.6 1.4 1.4 4.4 6.2 6.5 10.7 3.2 6.7 3.9 9.3 3.8 14.2 0 7.7-3.8 20.1-7.2 23.9-2.6 2.7-13.4 8.6-15.9 8.6-.6 0-2.4.5-3.8 1l-2.7 1 4.2 4.8c8.6 9.7 11.7 21.3 8.6 32.7-5.2 19.6-16.1 26.8-43.1 28.6-12.3.8-50.1.9-73.7.2zm121-4.5-2.3-4.3 3.8-14c2.1-7.7 4.7-16.9 5.7-20.5 4.6-15 8-27.2 11-38.5 1.7-6.6 4.2-14.9 5.5-18.5l2.3-6.5 27.3.3c29.5.3 35.7 1.2 39.6 5.4 3.8 4.2 8.3 13.3 8.3 16.9 0 8.2-5.9 24.1-10.3 27.7-.8.7-3.8 1.8-6.6 2.5-5.6 1.3-6.1 2.4-3.2 6.5 5.5 7.9 6.1 9.8 5.1 17-.5 3.7-1.9 9.8-3 13.6-1.2 3.7-2.5 8.6-2.8 10.9-.7 3.9-1 4.2-4.7 4.9-2.2.4-8.7.7-14.5.7h-10.5l-2.7-4.5c-2.7-4.4-2.7-4.5-1.2-9 2.5-7.3 8.4-29.4 8.4-31.4 0-1 .7-3.4 1.5-5.4 2-4.6 11.4-38.3 11.5-40.8 0-1.8-2.9-.6-6.7 2.7-5.8 4.9-9.6 15-19.4 51-2.1 7.7-5.3 18.9-7.1 25l-3.3 11-4 .7c-2.2.4-8.8.7-14.7.7l-10.7.1zm94.5.3-2.3-3.9 2.1-7.9c1.1-4.3 2.8-10.5 3.9-13.8 1-3.3 3.1-10.7 4.5-16.5s3.4-13.2 4.4-16.5c1.1-3.3 3.6-12.1 5.6-19.5s4.4-16 5.3-19l1.7-5.5 11-.1c17.1-.1 17.8.1 20.2 5l2 4.1-2.8 10c-1.6 5.5-4.2 15-5.8 21-1.6 6.1-3.9 14.2-5.1 18-1.1 3.9-3.7 12.9-5.6 20-6.5 23.8-7.7 27.3-9.9 27.9-1.1.3-7.6.6-14.5.6h-12.5zm67.7 3.1-15.5-.3-2.2-3.8c-1.8-3.2-2-4.3-1.2-7.7.6-2.1 1.5-5.7 2-7.9.6-2.2 1.8-6.5 2.9-9.5 3.2-9.6 7-23.6 7-25.9 0-1.2.5-3.2 1.1-4.3 1.2-2.1 6.5-20.2 10.4-35.2 1.3-4.9 2.8-9.3 3.3-9.8.6-.6 10.9-1 25.7-1 21.2.1 25.5.4 29.8 1.9 5.9 2.1 11.9 7.8 15.3 14.5 4.1 8.2 3.4 13.6-7 50.1-2 7-3.6 13.4-3.6 14.3 0 2.4-4.7 11.8-7.3 14.6-8.4 9-19.1 10.8-60.7 10zm26.7-26.2c3.8-2.2 5.6-4.9 7.8-11 2.2-5.9 8.5-28 8.5-29.6 0-.7 1.3-5.2 2.9-10.1 5-15.3 4.4-16.9-3.5-9.3-5.4 5.1-7.7 9.8-11.1 23-3.6 13.7-4.9 18.4-7.8 28.3-3.2 11.1-2.8 12.4 3.2 8.7zm79.3 26.1c-12.5-.7-14.6-1.8-21.1-11.3-6.8-10.1-6.7-12.3 3.1-46.3 1.1-3.8 2.7-10.1 3.6-14 1.9-8.3 6-20.1 7.9-23.2 2.5-3.8 7.9-7.2 14-8.8 7.3-1.9 38.8-2.3 45.2-.6 5.9 1.6 9.4 4.9 13.2 12.5 3.8 7.4 4.9 13.8 3.1 19l-1.2 3.6h-14.2c-14.6 0-16.6-.5-16.6-4.1 0-.9-.6-2.2-1.4-2.8-1.1-.9-1.1-2.1.2-7.6.9-3.5 1.3-6.8.9-7.1-.8-.9-8.4 4.3-10.2 7-.8 1.1-2.4 5.2-3.5 9-1.1 3.9-2.7 9.1-3.5 11.6-2.6 8.3-6.7 24.5-7.5 29.5-.5 2.8-1.1 6-1.5 7.3-.7 2.2-.6 2.3 4.1 2 5.6-.3 4.8 1.3 10.8-20.8l3.3-12.5 14.4-.3 14.4-.2 2.3 3.5c2.6 4 2.8 7 .8 12.2-.8 2.1-3.1 9.9-5.1 17.3s-4.4 16.2-5.4 19.5l-1.7 6-18.9.1c-10.5 0-23.7-.2-29.5-.5zm100-.1c-14.2-.4-17-.8-20-2.5-4.4-2.7-14-17.6-14-22 0-1.6 1.2-7.3 2.6-12.5s3.6-13.5 4.9-18.5c8-30.7 9.9-35.5 16.4-42.4 5.3-5.8 8-6.5 27.6-7.1 9.9-.3 21.4-.4 25.5-.2l7.5.3 2.1 4.7c2 4.6 2 4.8.2 11.6-1 3.8-1.9 7.1-2.2 7.3-.2.2-7.4.7-16 1l-15.7.6-2.3 3.1c-3.4 4.5-6.7 16.6-4.5 16.6.5 0 2.9-1 5.2-2.1 2.9-1.5 6.7-2.3 12.7-2.7l8.5-.4 2.3 4.1c2.5 4.4 2.5 4.7-.4 14.9l-1.5 5.2-12.7.1c-7 0-14.7.4-17.1.7-4 .6-4.5 1-5.8 4.7-.8 2.2-1.2 5.8-1.1 8l.3 4 12.3.5 12.4.5 2.3 3.8c2.5 4.2 2.3 5.9-1.2 15.5l-1.6 4.2-5.1-.2c-2.8-.1-12.5-.5-21.6-.8zm68.5-.1c-4.5-.3-9.4-1.2-11.2-2.2-2.9-1.5-7.3-6.5-7.3-8.2 0-.4-.9-1.8-2-3.2-1.6-2.1-2-4.1-2-10.3 0-4.3.3-9.2.6-10.9l.7-3.1h29.2l2.3 4c1.7 3.1 2.1 4.9 1.6 7.5-.6 3.4-.5 3.5 2.6 3.5 4.2 0 8.5-4.3 9.4-9.5 1-5-.2-5.9-10.3-8.1-4.2-.9-9.1-2.1-10.9-2.7-3.2-1.1-9.2-6.2-9.2-7.8 0-.4-1.1-2.5-2.5-4.5-3.5-5.1-3.4-13.5.3-26.6 2.4-8.8 3.2-10.6 7.3-14.8 7-7.4 10.9-8.2 36.6-7.8 19.9.3 20.9.4 24.1 2.6 1.8 1.3 4.2 4.2 5.5 6.4 1.2 2.2 2.9 5.2 3.7 6.7 2 3.6 2.7 17.1.9 18.2-.8.5-7.1.9-14 .9h-12.6l-2.8-4.2-2.7-4.1 1.6-5.8c1.9-7.1 1.9-6.9.2-6.9-5.7 0-17.9 19.8-13.8 22.4.5.3 4.8 1.1 9.8 1.9 4.9.9 10.1 2 11.5 2.5 4.5 1.8 8.9 6.3 12.1 12.5 3.5 6.9 3.5 9.2-.1 26.1-3.3 15.5-6.8 19.9-18.8 23.6-6.4 1.9-25.9 2.9-39.8 1.9zm75.9.1c-1.1-.4-2.7-2.2-3.4-3.9s-1.7-3.1-2.2-3.1c-.6 0-.7-.9-.3-2.2.8-2.6 2.9-9.6 4.9-16.5.7-2.7 3.2-11.5 5.5-19.8 5-18.1 7.3-23.7 11.7-29.1 1.8-2.3 3-4.4 2.7-4.8-.4-.3-3.7-.6-7.4-.6h-6.9l-2.1-4.2c-2.1-4.1-2.1-4.3-.5-11.7.9-4.1 2.2-8.1 2.8-8.8.8-1 7.8-1.3 32.4-1.3h31.4l2 4 2.1 4.1-2.2 7.9c-1.2 4.4-2.5 8.2-2.9 8.5s-4.1.8-8.1 1.1c-8.2.7-10.5 2.1-11.4 6.8-.4 1.7-1.3 5.1-2.1 7.6s-2.1 7.5-2.9 11c-.8 3.6-3.1 11.9-5.1 18.5s-4.9 16.7-6.4 22.5c-3.5 13.2-3.7 13.7-6.3 14.4-3.3.9-22.9.6-25.3-.4zm147.7-3.6-3.1-4.5 3.6-12.7c2-7 4.7-17 6.1-22.2 3.2-12.2 4.4-16.5 9.1-33.5 2.2-7.7 4.5-16.5 5.2-19.5s1.8-6.6 2.4-7.9l1.1-2.4 30.3.7c17.8.5 31.4 1.2 32.8 1.8 2.3 1.1 5.9 6 8.2 11.1 1.6 3.8 1.5 15.8-.3 23.7-.8 3.6-3.4 13.3-5.8 21.5-2.5 8.3-6.1 21.3-8.2 28.9-2 7.7-4.2 15-4.7 16.2-1.3 2.8-6.9 3.7-20.8 3.2l-9.5-.3-1.7-3.7c-1.7-3.6-1.7-4.1.1-11.5 1.1-4.3 3.4-12.5 5.1-18.3 1.8-5.8 5.2-17.9 7.7-27s5.5-20 6.6-24.2c1.2-4.2 1.8-8.1 1.3-8.5-1.1-1.1-7.8 6.5-11.4 13.1-2.6 4.6-8 21.5-9.5 30.1-.3 1.7-1.5 5.7-2.6 9-2.6 7.8-6.5 20.8-9.4 31.5-2.7 10-2.2 9.8-18.4 9.9l-11.2.1zm129.9 3.7c-20.5-.7-21-.9-29.1-13.3-6.7-10.2-7.1-12.6-4-22.4 2.5-7.7 6.4-21.7 10.6-38.1 3.6-14.1 5.7-18.9 10.3-24 5.1-5.7 8.6-6.5 30.7-7.2 11-.4 22.5-.5 25.6-.3 5.4.4 5.8.6 7.9 4.4 2.3 4.1 2.3 4.9-.6 14.4l-1.6 5.1-15.4 1c-16.3 1-19.4 2.1-19.4 6.5 0 1-.9 3.6-2 5.8-1.9 3.8-2.7 8-1.4 8 .4 0 2.1-.9 3.8-2 2.4-1.4 5.9-2.1 13.9-2.6 9.7-.6 10.7-.5 10.7 1 0 .9.7 3 1.5 4.6 1.3 2.5 1.3 3.6-.3 10.4l-1.7 7.6h-11.1c-6.1 0-13.8.3-17.2.6-6 .7-6.1.8-7.7 4.6-.9 2.2-1.8 6-2.2 8.4l-.6 4.4h26.3l2.1 4.3c2.1 4.3 2.1 4.3.2 11.8l-1.9 7.4-5.4.1c-3 0-12.9-.2-22-.5zm-208.4-2.9c-2.2-1.5-5.1-4.6-6.5-6.8s-3.6-5.6-4.8-7.5c-2.8-4.2-2.8-6.3.1-16.9 1.3-4.7 4-14.6 6-22 7.5-27.3 9.9-34.2 13.9-39.2 6.7-8.5 11.8-9.9 35.8-9.9 14.7 0 15.2.1 21.7 3.1 7 3.2 8.9 5.3 14.1 15.7 2.8 5.5 2.7 6.6-1.4 21.3-2 6.9-4 15-4.6 18s-1.8 7.1-2.5 9c-.8 1.9-2.5 7.1-3.8 11.6-4.5 15.3-7.4 18.9-18.6 23.5-7.1 2.9-7.4 2.9-26.4 2.9l-19.1-.1zm29.8-22.4c1.9-1.8 3.5-5.7 6.5-16.3 2.2-7.7 5.8-20.1 7.9-27.5 5.1-17.8 6.4-23.1 5.7-23.8-1-1-11 10.6-12.2 14-.6 1.8-2.1 6.7-3.3 10.8s-2.7 9.1-3.5 11c-3.4 9.3-8.1 29.6-7.6 33.3.2 1.5 4.1.6 6.5-1.5z" fill="#fff"/><g stroke="#000"><path d="m22 98.6c0-1.2 2.1-8.5 8.1-27.6 2.6-8.5 5.8-18.9 6.9-23 6.3-22 11-36.3 12.4-37.5.7-.7 11.5-.8 31.1-.5l30 .5-44.2 44.5c-24.4 24.5-44.3 44.1-44.3 43.6z" fill="#d70000"/><path d="m9 133.2c0-.8 17.8-18.5 33.6-33.2 5-4.7 15.6-14.7 23.6-22.3 8.1-7.6 15.7-14.6 17.1-15.7l2.5-2-3.8 14.3c-2.1 7.8-5 18.8-6.5 24.4s-2.5 10.8-2.2 11.7c.5 1.2 2.1 1.6 6.9 1.6 7 0 10.3-1.5 11.1-5.2.2-1.3 1.9-7.2 3.7-13.2 1.7-6 3.8-13.7 4.5-17 .8-3.4 3.4-13.1 5.8-21.6 2.5-8.5 5.6-20.2 7.1-26s3.3-12.3 4-14.5l1.3-4 6-.3c8.2-.4 20 2.2 23.1 5 1.3 1.3 3.5 4.5 4.9 7.3 2.2 4.3 2.5 5.8 2 12-.3 3.8-1.5 9.7-2.6 13-4.1 11.8-7.7 14.5-25.8 19.4-5.1 1.4-5.4 3-1.2 5.5 3.8 2.2 9.7 8.6 12.2 12.9 1.2 2.2 1.7 5.4 1.7 10.5 0 8.6-3.8 18.8-9.6 25.9-4.4 5.3-13.4 9.7-23.1 11.2-8.3 1.3-96.3 1.5-96.3.3zm133.9.4c-.5-.6 4.5-20.2 9.1-35.6 4.6-15 8-27.2 11-38.5 1.7-6.6 4.2-14.9 5.4-18.5l2.4-6.5 7.8-.3c4.4-.1 17.6.1 29.4.6 18.2.7 22.1 1.1 25.5 2.7 7.8 3.9 10.1 10.9 7.1 22-3.3 12.7-9.1 19.9-16.7 21.1-4.8.8-5.9 2.7-3.2 5.7 4.5 5.1 7.3 10.7 7.2 14.4 0 2.1-1.9 10.1-4.2 17.8l-4.2 14-5 .7c-7.6 1-23.3.9-24-.1-.3-.5.2-3.1 1.1-5.6 2.5-7.4 8.4-29.5 8.4-31.5 0-1 .7-3.4 1.5-5.4.9-2 2.7-7.8 4.1-12.9s3.2-11.3 3.9-13.9c2.9-10.1 5.4-24.1 4.7-25.5-.7-1.1-2.1-.5-6.8 3-11.8 8.7-10.2 4.7-29.4 72.2-2.8 9.9-5.5 18.4-6 18.9-1.1 1.1-28.2 2.2-29.1 1.2zm94.8-2.8c.4-1.8 1.9-7.6 3.4-12.8 1.6-5.2 4.2-14.9 5.9-21.5s3.9-14.7 4.9-18 3.6-12.1 5.6-19.5 4.4-16 5.3-19l1.7-5.5 14.3.1c7.8.1 14.5.3 14.7.6.5.4-2.8 12.5-19.2 70.1-6.8 24-7.9 27-10.1 27.8-1.3.5-7.9.9-14.7.9h-12.4zm171.3 2.3c-12.5-.7-14.6-1.4-18.6-6.6-5.2-6.9-4.7-11.7 4.6-44 1.1-3.8 2.7-10.1 3.6-14 3.2-14 6.5-21.7 10.9-26 5.2-5.1 10-6.6 24.5-7.5 16.3-.9 31.9.2 36.1 2.6 5.6 3.3 8.8 9 8.9 15.6 0 3.1-.5 6.9-1.2 8.3l-1.1 2.5h-14.2c-7.8 0-14.4-.2-14.7-.5-.5-.6.8-7.1 3.8-18.9 1-3.5 1.2-6.2.6-6.8-1-1-9.6 4.5-15 9.5-3.7 3.5-3.9 4.2-13.2 39.6-3.6 13.7-5.9 24.3-5.6 25.7.5 1.8 1.5 2.4 4.9 2.9 2.4.4 5.5.5 6.8.3 2.7-.3 2.8-.7 8.3-20.8l3.3-12.5 14.7-.3c8.9-.1 14.6.1 14.6.7 0 1.5-11.9 46.3-13 48.9-.9 2.2-1.1 2.2-19.2 2-10.1-.1-23.5-.4-29.8-.7zm100.5 0c-21.7-.7-21.8-.7-27.2-9.3-4-6.3-4.1-8.5-.7-20.8 1.4-5.2 3.6-13.5 4.9-18.5 8-30.7 9.9-35.5 16.4-42.4 5.3-5.8 8-6.5 27.6-7.1 9.9-.3 21.5-.4 25.9-.2l7.8.3-.6 3.4c-.4 1.8-1.3 5.6-2.1 8.3l-1.5 4.9-15.5.7c-8.6.4-16.2.9-17 1.2-2.1.8-5.2 7.9-7.7 17.7-1.9 7.1-2.1 8.9-1 9.6 1.4.8 7.1-.8 12.5-3.6 1.9-.9 6.7-1.8 11.9-2.1 10.2-.6 10-.9 6.8 9.9l-2.1 6.9h-16.3c-12.7 0-16.6.3-17.5 1.4s-4 13.1-4.1 15.8c0 .4 1.4 2.3 3.1 4.3l3.1 3.5h11.8c6.6 0 12.1.3 12.3.8.2.4-.5 4.1-1.7 8.2l-2.2 7.5-3.9.1c-2.2 0-12.5-.2-23-.5zm143.2.2c-1.4-.3-1.7-1-1.2-2.6.7-2.4 2.7-9 4.9-16.4.7-2.7 3.4-12 5.9-20.8 5.9-21 7.4-24.2 15.2-32.2 3.6-3.7 6.5-7.1 6.5-7.5 0-.5-5.8-.8-13-.8-10.6 0-13-.3-13-1.4 0-2.8 3.2-15.1 4.2-16.3.8-1 8.4-1.3 32.5-1.3h31.4l-.7 3.8c-.4 2-1.4 6-2.3 8.7l-1.6 5-8.4.7c-4.6.4-8.7 1.1-9.2 1.5-.8.8-1.8 4.2-14.5 49.5-4.2 15.2-8.1 28.3-8.5 29-.8 1.3-24.4 2.3-28.2 1.1zm149.8-.3c-.3-.5 1.1-6.7 3.1-13.7s4.7-17.1 6.1-22.3c3.2-12.2 4.4-16.5 9.1-33.5 2.2-7.7 4.5-16.5 5.2-19.5s1.8-6.6 2.4-7.9l1.1-2.4 30.3.7c18.3.5 31.4 1.2 32.8 1.8 4 1.9 6.4 6.8 6.4 13.3 0 5.3-4.7 23.3-19.9 77-1.7 6-1.7 6-6.2 6.7-6.1.9-24.9 1-24.9.1.1-1.6 4-16.1 7-26.3 1.8-5.8 5.1-17.7 7.5-26.5s5.3-19.1 6.3-23c2.7-9.7 4.4-19.4 3.7-20.5-.3-.6-1.2-1-2-1-2 0-12.1 10.9-15 16.2-1.4 2.6-6.8 19.7-12.1 38-5.2 18.3-10.1 35.4-11 37.9l-1.5 4.6-6.1.7c-9.1.9-21.6.7-22.3-.4zm129 0c-10.9-.3-19.1-1-20.8-1.7-1.5-.7-4.5-4-6.7-7.4-4.6-7.2-5-10.5-2.1-19.5 2.5-7.7 6.4-21.7 10.6-38.1 5.6-21.9 10.5-28.2 23.5-30.6 4.7-.9 47.8-1.2 48.7-.4 1 1.1-3.1 15-4.7 15.8-.8.5-7.7 1.1-15.2 1.5-17.4.8-17.6.9-21.8 14.3-3.4 11-3.5 12.4-1.7 13.9.9.8 2.8.3 7.1-1.8 4.7-2.4 7.5-3 15.7-3.6 11.5-.8 11.1-1.3 7.9 9.7l-2.1 6.9h-16.4c-19 0-18.1-.5-20.9 10.6-2.1 8.1-2 9.1.9 11.9 2.3 2.4 2.9 2.5 15.4 2.5 7.1 0 13.2.3 13.4.8.7 1-3.5 14.6-4.7 15.4-.6.5-2.7.7-4.6.5-1.9-.1-11.6-.4-21.5-.7zm-644.1-2.2c.4-1.3 1.1-4.1 1.7-6.3s2.1-7.4 3.4-11.5c4.9-16.2 7.5-25.8 7.5-27.9 0-1.2.5-3.2 1.1-4.3 1.2-2.1 6.5-20.2 10.4-35.2 1.3-4.9 2.8-9.3 3.3-9.8.6-.6 10.9-1 25.7-1 28.8.1 31.9.7 39.1 8.1 4.2 4.3 4.4 4.7 4.4 10.5s-7.8 37.5-14.2 57.9c-2.7 8.8-7.7 14.4-16 18.3l-6.3 2.9-30.3.3-30.4.3zm44.8-15.7c2.4-.4 7-6 8.8-10.9 2.4-6.3 9-28.9 9-30.8 0-.7 1.3-5.3 2.9-10.2 1.7-4.9 3.2-10.8 3.6-12.9.3-2.2 1-5.5 1.5-7.3 1.9-6.8-.6-6.6-9.4.6-8.7 7.2-9.7 9.4-18.5 41.7-7 25.4-7.7 28.8-6.5 30 .5.5 4.8.4 8.6-.2zm234.8 16.4c-5.8-2.5-8-6.8-8-15.7 0-4.1.3-9 .6-10.7l.7-3.1h30l-.6 2.9c-.3 1.6-.9 4-1.2 5.3-.7 2.9 1.3 5.5 5.2 6.4 6.3 1.6 11.7-3.6 11.7-11.5 0-6.5-2.1-9.5-7.6-10.9-2.4-.6-7.4-1.9-11.3-2.8-3.8-1-8.3-2.4-9.8-3.1-7.3-3.6-8.6-13.7-3.9-30.5 2.4-8.8 3.2-10.6 7.3-14.8 7-7.4 10.9-8.2 36.6-7.8 20 .3 20.9.4 24.1 2.6 4.5 3.3 8.2 10.9 8.2 16.9 0 7.7-.1 7.8-16 8.1-15.7.4-14.9.9-12.6-7.4.8-2.7 1.4-5.6 1.4-6.4-.1-.8.3-3.6.7-6.2.7-4.3.5-4.8-1.2-4.8-1.1 0-4.8 2.6-8.3 5.7-10.5 9.5-14 20.5-8.3 25.8 1.5 1.4 3 2.5 3.3 2.5 2.2 0 18 3 20.1 3.8 3.6 1.4 8.7 6 10.4 9.2 1.3 2.5 1.3 3.9 0 11.7-3.9 22.1-7.8 29.2-18.6 33.5-4.9 2-7.6 2.2-27.4 2.5-17.9.2-22.6 0-25.5-1.2zm156.7.2c-3.3-1.4-9.5-9-10.4-12.5-.6-2.5.5-7.2 8.1-35.2 7.5-27.4 9.9-34.2 13.9-39.2 6.7-8.5 11.8-9.9 35.8-9.9 14.7 0 15.2.1 21.7 3.1 5.4 2.5 7.3 4 9.6 7.6 2.4 3.9 2.8 5.2 2.3 9.2-.8 6.3-15.3 57.4-17.9 62.9-2.4 5.2-6.4 8.7-13.8 12.2-5.3 2.5-6.3 2.6-26 2.8-14.7.2-21.3-.1-23.3-1zm32.7-16.9c1.9-1.8 3.5-5.7 6.5-16.3 2.2-7.7 5.8-20.1 7.9-27.5 10.8-37.5 10.5-41.3-2.5-27.7-3.8 4-7.4 8.6-8.1 10.2-1.5 4-14.8 51.1-15.6 55.3-.5 2.7-.1 3.8 1.9 5.8 3 3 6.6 3.1 9.9.2z"/></g></svg>