<?xml version="1.0" encoding="utf-8"?>
<!-- Generator: Adobe Illustrator 16.0.3, SVG Export Plug-In . SVG Version: 6.00 Build 0)  -->
<!DOCTYPE svg PUBLIC "-//W3C//DTD SVG 1.1//EN" "http://www.w3.org/Graphics/SVG/1.1/DTD/svg11.dtd">
<svg version="1.1" id="Capa_2" xmlns="http://www.w3.org/2000/svg" xmlns:xlink="http://www.w3.org/1999/xlink" x="0px" y="0px"
	 width="1000px" height="267px" viewBox="0 0 1000 267" enable-background="new 0 0 1000 267" xml:space="preserve">
<g>
	<polygon fill="#19529E" points="0.866,0.002 1000,0.002 1000,267 0.866,267 	"/>
	<path fill="#F7F719" d="M888.793,101.568l5.256-0.015c4.555,0,7.649,3.813,6.16,9.466c-5.838,22.291-2.948,28.514-20.437,27.506
		L888.793,101.568L888.793,101.568z M918.838,149.657c3.005-2.979,4.961-2.937,11.034-9.568
		c11.606-12.781,12.773-34.839-0.059-43.721c-9.284-6.398-22.728-5.419-35.779-5.419c-13.299,0-27.604-0.54-40.8,0l-22.424,88.523
		l38.992-0.088l6.044-25.023l5.574,0.103l5.3,24.994l38.686-0.162L918.838,149.657L918.838,149.657z"/>
	<path fill="#F7F719" d="M408.13,167.099l3.927-16.316c1.606-6.413,11.197-46.92,12.32-49.272c4.263-0.292,8.518-0.525,11.043,1.899
		c3.066,3.009,1.964,5.857,0.796,10.283c-1.854,7.202-3.526,14.651-5.35,21.825c-1.825,7.435-3.482,14.548-5.321,21.896
		C423.32,166.514,418.969,168.297,408.13,167.099L408.13,167.099z M368.22,179.384c10.846,0.526,22.984,0.088,34.006,0.088
		c10.897,0,21.984,0.35,31.809-2.191c17.67-4.559,27.802-17.149,33.108-34.591c6.43-21.123,5.401-40.756-12.671-48.308
		c-9.409-3.885-19.124-3.433-30.574-3.433c-5.65,0-30.313-0.322-33.751,0.088L368.22,179.384L368.22,179.384z"/>
	<path fill="#F7F719" d="M229.182,109.106c-2.984,12.708-6.262,25.68-9.218,38.403c-1.109,4.646-3.125,15.762-5.503,18.508
		c-4.532,5.331-14.693,2.016-12.869-5.726c3.044-12.725,6.395-25.55,9.357-38.272c1.043-4.631,3.11-15.908,5.511-18.523
		C220.796,98.808,231.263,100.269,229.182,109.106L229.182,109.106z M261.291,129.893c5.219-31.538-20.494-44.977-50.136-39.82
		c-25.407,4.484-40.254,22.54-42.706,49.594c-1.386,15.541,5.037,26.614,13.066,33.056c9.7,7.802,22.093,9.583,37.114,6.925
		C244.817,174.986,256.825,157.092,261.291,129.893L261.291,129.893z"/>
	<path fill="#F7F719" d="M333.536,109.106c-1.746,6.193-3.095,12.928-4.649,19.354c-1.526,6.442-3.11,12.826-4.635,19.326
		c-1.146,4.806-3.015,15.615-5.635,18.405c-4.868,5.229-14.24,1.55-12.722-5.639c2.751-12.825,6.327-25.781,9.364-38.636
		c1.074-4.587,3.139-15.704,5.555-18.377C325.405,98.545,335.916,100.75,333.536,109.106L333.536,109.106z M365.943,127.57
		c1.525-16.155-4.125-26.191-13.525-32.209c-18.81-12.051-52.26-7.114-67.821,12.125c-6.395,7.946-11.467,20.801-11.825,34.357
		c-0.803,30.618,23.89,43.575,52.421,37.382c13.444-2.908,22.444-9.203,28.538-17.764
		C359.848,152.943,364.673,140.761,365.943,127.57L365.943,127.57z"/>
	<path fill="#F7F719" d="M146.509,96.792c-1.526-2.089-7.928-4.704-11.109-5.727c-4.322-1.285-9.402-2.264-14.467-2.249
		c-9.642,0.087-19.569,3.214-26.772,6.764c-14.335,6.981-25.657,18.785-30.094,36.665c-5.59,22.189-1.058,39.222,17.276,45.312
		c8.358,2.806,21.78,1.915,31.502,1.915c6.094,0,28.846,0.307,32.992-0.117c0.89-3.959,10.73-43.4,10.832-45.941l-36.458,0.015
		c-0.789,2.045-1.512,6.048-2.153,8.414c-1.075,4.164-5.724,24.059-6.49,25.257c-17.576,1.519-14.495-2.498-11.241-15.748
		c2.037-8.413,4.249-16.944,6.357-25.446c1-4.177,2.073-8.253,3.153-12.68c1.256-5.068,2.366-7.552,6.395-9.48
		c3.918-1.884,9.167-1.607,13.429-0.409c5.621,1.563,6.678,3.213,10.518,5.405L146.509,96.792L146.509,96.792z"/>
	<path fill="#F7F719" d="M778.082,120.836l3.038,30.866l-21.43,0.146c0.482-2.016,13.751-23.401,16.992-29.245
		C777.237,121.654,777.324,121.348,778.082,120.836L778.082,120.836z M742.727,179.368c2.979-4.63,5.928-9.67,8.848-14.446
		c7.592-0.015,25.779-0.307,30.815,0.132l1.459,14.081c1.506,0.833,36.948,0.264,37.401,0.233l-8.205-88.448l-34.947,0.087
		c-2.058,3.652-4.407,7.523-6.582,11.161l-19.576,32.998c-1.664,2.805-25.518,42.406-26.014,44.261L742.727,179.368L742.727,179.368
		z"/>
	<path fill="#F7F719" d="M736.918,107.47c0.642-1.08,4.233-14.578,4.262-16.536l-69.996,0.045
		c-5.562,24.833-12.831,51.944-18.977,77.361c-0.715,2.761-2.423,8.531-2.556,11.132l69.661-0.117l4.233-16.419l-31.034-0.088
		l5.24-20.641l20.247-0.146c0.861-3.126,3.621-13.556,3.709-16.433l-20.116-0.088l4.671-18.026L736.918,107.47L736.918,107.47z"/>
	<path fill="#F7F719" d="M613.712,179.34c1.984-9.262,4.729-18.537,6.978-27.726c0.526-2.147,1.168-4.85,1.752-6.968
		c0.672-2.308,9.256-12.563,11.065-14.842c1.255-1.621,29.283-36.854,30.188-38.871h-16.204c-3.999,0-3.328-0.35-5.313,2.119
		l-9.927,12.168c-2.628,3.098-11.415,14.345-13.283,16.127c-1.752-2.265-7.869-27.186-9.708-30.384l-38.875,0.059
		c0.249,2.352,11.592,40.667,12.556,44.085c1.723,6.019,1.415,5.099-0.365,11.146c-2.424,8.398-7.693,26.206-9.226,33.203
		L613.712,179.34L613.712,179.34z"/>
	<path fill="#F7F719" d="M568.371,62.859c0.292,3.052-3.183,3.797-5.81,3.987c-4.087,0.263-1.868,2.483-6.656,3.156
		c-1.373,0.16-3.212-0.088-4.321,0.569c-0.877,0.526-1.284,1.636-2.394,2.381c-2.103,1.417-6.132,0.555-7.036-1.125
		c-1.869-3.228,3.532-0.701,6.014-2.79c1.811-1.49,1.78-4.865,4.847-4.499c6.977,0.759,4.555-1.286,6.977-2.469
		c1.256-0.599,2.308,0.453,3.651,0.628C565.423,63.034,566.474,62.376,568.371,62.859L568.371,62.859z M593.567,75.523
		c-2.453-0.803-8.876-0.818-7.796-4.163c0.993-3.024,6.043-1.038,9.051-0.716c17.896,2.045,49.457,3.608,51.151-19.355
		c-4.263,0.322-8.584,1.402-13.079,1.782c-4.439,0.351-8.701,0.76-13.256,0.935c-19.999,0.687-35.823-0.511-55.443-1.46
		c-15.809-0.775-33.34,2.497-37.063,20.173c-1.168,5.492-0.555,13.41,1.78,18.551c1.431,3.112,0.789,1.987,0.423,5.712
		c-0.817,7.231,1.168,18.975,4.701,23.504c3.357,4.28,6.511,0.059,7.796-3.228c1.371-3.463,0.846-9.32,4.203-9.963
		c2.074,1.271,1.256,3.754,3.577,5.375c4.904-1.197,3.212-11.394,4.876-12.985c2.232,0.832,1.504,3.374,3.824,3.958
		c2.233-0.789,3.036-4.528,3.62-7.158c0.511-2.41-0.467-7.903,0.642-9.714c1.124-1.053,14.949,2.76,18.992-2.586
		c-1.43-0.497-3.97-1.315-2.132-3.52C581.655,78.094,584.225,82.929,593.567,75.523L593.567,75.523z"/>
	<path fill="#F7F719" d="M461.764,208.643c5.335-0.512,19.014-11.088,22.377-13.994c9.716-8.297,19.102-17.208,27.21-26.922
		c0.935-1.066,1.08-1.256,0.307-2.79c-2.642-5.128-16.131-31.362-17.116-32.502c-2.752,3.068-14.378,34.664-15.992,40.434
		c-3.736,13.644-12.138,18.581-16.576,25.87c-0.78,1.228-1.964,3.359-2.109,5.011C459.581,206.524,460.522,207.182,461.764,208.643
		L461.764,208.643z"/>
	<path fill="#F7F719" d="M500.301,128.476c0.19,1.27,13.882,29.376,16.394,33.67c6.919-6.982,25.867-21.561,35.269-25.417
		c-0.117-1.257-5.693-13.527-6.862-14.652c-2.276,2.293-8.145,14.695-12.525,9.992c-2.174-2.293-6.742-12.518-8.115-16.171
		c-1.956,0.38-9.838,5.084-12.263,6.34C508.607,124.123,503.995,126.869,500.301,128.476L500.301,128.476z"/>
	<path fill="#F7F719" d="M521.483,89.692c-0.059-3.462-0.993-6.807-0.993-10.75c0-7.042,0.949-6.281,1.489-9.583
		c-1.255,0.773-2.992,1.636-4.409,2.454l-21.976,12.694c-2.86,1.695-6.015,3.667-8.898,5.171l8.299,14.768L521.483,89.692
		L521.483,89.692z"/>
	<path fill="#F7F719" d="M468.295,215.728c5.453-0.774,20.167-11.453,24.664-15.178c7.714-6.368,13.765-12.665,20.524-19.297
		c6.656-6.558,12.029-13.424,19.999-19.837c6.307-5.112,9.985-8.37,17.108-12.782c1.357-0.803,5.271-2.717,6.277-3.593l-2.044-4.12
		c-5.46,0.936-20.407,12.725-24.174,15.938c-6.773,5.712-9.635,8.385-15.561,14.651c-13.533,14.198-29.59,32.371-49.634,40.756
		C465.902,213.346,467.428,214.924,468.295,215.728L468.295,215.728z"/>
	<path fill="#F7F719" d="M498.119,123.378c2.985-1.052,13.759-7.245,18.081-9.466c0.423-0.249,0.934-0.423,1.284-0.627
		c0.117-0.073,0.481-0.352,0.613-0.438c0.524-0.424,0.175-0.059,0.584-0.658l-18.847-1.635c-0.058,2.542-0.146,4.338-0.671,6.763
		C498.82,119.215,498.148,121.508,498.119,123.378L498.119,123.378z"/>
	<path fill="#F7F719" d="M523.673,106.769c-0.029-2.176-0.264-3.929-0.292-6.09c-0.029-1.958,0.321-4.047,0.263-5.698
		c-2.774,1.242-6.627,3.477-9.284,5.055c-0.497,0.292-8.919,4.616-8.781,5.2C506.893,105.878,521.278,106.886,523.673,106.769
		L523.673,106.769z"/>
</g>
<g>
</g>
<g>
</g>
<g>
</g>
<g>
</g>
<g>
</g>
<g>
</g>
</svg>
