<svg height="656" width="2500" xmlns="http://www.w3.org/2000/svg" viewBox="0 0.5999999999999943 1547.3 405.1"><g fill="#231815"><path d="M1547.3 84.3v44.1c0 45.8-38 83.8-83.8 83.8h-120.1c-45.8 0-83.8-38-83.8-83.8V84.3c0-46.6 38-83.7 83.8-83.7h120.1c46.6 0 83.8 37.1 83.8 83.7zm-75.2 2.6c0-21.6-17.3-38.8-38.9-38.8h-59.6c-21.6 0-38.8 17.2-38.8 38.8v37.2c0 21.6 17.2 38.8 38.8 38.8h59.6c21.6 0 38.9-17.2 38.9-38.8z" fill-rule="evenodd"/><path d="M486.4 124.9c0 21.6-17.3 38.9-38.9 38.9h-44c-21.6 0-38.9-17.3-38.9-38.9V5.7h-75.1v121.8c0 45.8 38 83.8 83.7 83.8h104.6c45.8 0 83.8-37.1 83.8-83.8V5.7h-75.2zM758.5 150.9L696.3 5.7H597v200.4h73.4V93.8l51 112.3h74.3l51-112.3v112.3h73.4V5.7h-99.4zM270.4 5.7h-91.5L74.3 91.3V5.7H0v199.6h74.3v-89l109.8 89.8h102.8L156.4 99zM1153.3 5.7v72.6h-121.8V5.7h-74.3v200.4h74.3v-72.5h121.8v72.5h75.2V5.7zM831.1 296.8h74.3v108.9h55.3V296.8h74.3v-41.4H831.1z"/><path d="M1301.1 353l38 51.8h-62.2l-38-50.1h-38v50.1h-56.2V255.4h139.1c33.7 0 52.7 17.2 52.7 48.3v2.6c0 25.1-13.8 41.5-35.4 46.7zm-21.6-48.4c0-7.8-6.1-13.8-13.9-13.8h-66.5v28.5h66.5c7.8 0 14.7-6.1 13.9-14.7z" fill-rule="evenodd"/><path d="M1536.9 290.8v-35.4h-177.1v150.3h177.1v-35.5H1416v-22.4h114v-35.4h-114v-21.6zM1116.2 255.4v149.4H1060V255.4z"/></g></svg>